<?xml version="1.0" encoding="us-ascii" standalone="no"?><svg xmlns="http://www.w3.org/2000/svg" xmlns:xlink="http://www.w3.org/1999/xlink" contentStyleType="text/css" height="2938px" preserveAspectRatio="none" style="width:2350px;height:2938px;background:#FFFFFF;" version="1.1" viewBox="0 0 2350 2938" width="2350px" zoomAndPan="magnify"><defs/><g><rect fill="none" height="352.3984" style="stroke:#000000;stroke-width:1.5;" width="1912" x="10" y="127.4297"/><rect fill="none" height="206.7344" style="stroke:#000000;stroke-width:1.5;" width="1489" x="256" y="1455.2109"/><line style="stroke:#181818;stroke-width:0.5;stroke-dasharray:5.0,5.0;" x1="38" x2="38" y1="81.2969" y2="2857.2578"/><line style="stroke:#181818;stroke-width:0.5;stroke-dasharray:5.0,5.0;" x1="306" x2="306" y1="81.2969" y2="2857.2578"/><line style="stroke:#181818;stroke-width:0.5;stroke-dasharray:5.0,5.0;" x1="636.5" x2="636.5" y1="81.2969" y2="2857.2578"/><line style="stroke:#181818;stroke-width:0.5;stroke-dasharray:5.0,5.0;" x1="785.5" x2="785.5" y1="81.2969" y2="2857.2578"/><line style="stroke:#181818;stroke-width:0.5;stroke-dasharray:5.0,5.0;" x1="942.5" x2="942.5" y1="81.2969" y2="2857.2578"/><line style="stroke:#181818;stroke-width:0.5;stroke-dasharray:5.0,5.0;" x1="1106.5" x2="1106.5" y1="81.2969" y2="2857.2578"/><line style="stroke:#181818;stroke-width:0.5;stroke-dasharray:5.0,5.0;" x1="1284.5" x2="1284.5" y1="81.2969" y2="2857.2578"/><line style="stroke:#181818;stroke-width:0.5;stroke-dasharray:5.0,5.0;" x1="1457.5" x2="1457.5" y1="81.2969" y2="2857.2578"/><line style="stroke:#181818;stroke-width:0.5;stroke-dasharray:5.0,5.0;" x1="1667" x2="1667" y1="81.2969" y2="2857.2578"/><line style="stroke:#181818;stroke-width:0.5;stroke-dasharray:5.0,5.0;" x1="1828" x2="1828" y1="81.2969" y2="2857.2578"/><line style="stroke:#181818;stroke-width:0.5;stroke-dasharray:5.0,5.0;" x1="1977" x2="1977" y1="81.2969" y2="2857.2578"/><line style="stroke:#181818;stroke-width:0.5;stroke-dasharray:5.0,5.0;" x1="2133.5" x2="2133.5" y1="81.2969" y2="2857.2578"/><line style="stroke:#181818;stroke-width:0.5;stroke-dasharray:5.0,5.0;" x1="2266.5" x2="2266.5" y1="81.2969" y2="2857.2578"/><text fill="#000000" font-family="sans-serif" font-size="14" lengthAdjust="spacing" textLength="31" x="20" y="77.9951">User</text><ellipse cx="38.5" cy="13.5" fill="#E2E2F0" rx="8" ry="8" style="stroke:#181818;stroke-width:0.5;"/><path d="M38.5,21.5 L38.5,48.5 M25.5,29.5 L51.5,29.5 M38.5,48.5 L25.5,63.5 M38.5,48.5 L51.5,63.5 " fill="none" style="stroke:#181818;stroke-width:0.5;"/><text fill="#000000" font-family="sans-serif" font-size="14" lengthAdjust="spacing" textLength="31" x="20" y="2869.2529">User</text><ellipse cx="38.5" cy="2881.0547" fill="#E2E2F0" rx="8" ry="8" style="stroke:#181818;stroke-width:0.5;"/><path d="M38.5,2889.0547 L38.5,2916.0547 M25.5,2897.0547 L51.5,2897.0547 M38.5,2916.0547 L25.5,2931.0547 M38.5,2916.0547 L51.5,2931.0547 " fill="none" style="stroke:#181818;stroke-width:0.5;"/><rect fill="#E2E2F0" height="30.2969" rx="2.5" ry="2.5" style="stroke:#181818;stroke-width:0.5;" width="81" x="266" y="50"/><text fill="#000000" font-family="sans-serif" font-size="14" lengthAdjust="spacing" textLength="67" x="273" y="69.9951">Web App</text><rect fill="#E2E2F0" height="30.2969" rx="2.5" ry="2.5" style="stroke:#181818;stroke-width:0.5;" width="81" x="266" y="2856.2578"/><text fill="#000000" font-family="sans-serif" font-size="14" lengthAdjust="spacing" textLength="67" x="273" y="2876.2529">Web App</text><rect fill="#E2E2F0" height="30.2969" rx="2.5" ry="2.5" style="stroke:#181818;stroke-width:0.5;" width="140" x="566.5" y="50"/><text fill="#000000" font-family="sans-serif" font-size="14" lengthAdjust="spacing" textLength="126" x="573.5" y="69.9951">CheepRepository</text><rect fill="#E2E2F0" height="30.2969" rx="2.5" ry="2.5" style="stroke:#181818;stroke-width:0.5;" width="140" x="566.5" y="2856.2578"/><text fill="#000000" font-family="sans-serif" font-size="14" lengthAdjust="spacing" textLength="126" x="573.5" y="2876.2529">CheepRepository</text><rect fill="#E2E2F0" height="30.2969" rx="2.5" ry="2.5" style="stroke:#181818;stroke-width:0.5;" width="138" x="716.5" y="50"/><text fill="#000000" font-family="sans-serif" font-size="14" lengthAdjust="spacing" textLength="124" x="723.5" y="69.9951">FollowRepository</text><rect fill="#E2E2F0" height="30.2969" rx="2.5" ry="2.5" style="stroke:#181818;stroke-width:0.5;" width="138" x="716.5" y="2856.2578"/><text fill="#000000" font-family="sans-serif" font-size="14" lengthAdjust="spacing" textLength="124" x="723.5" y="2876.2529">FollowRepository</text><rect fill="#E2E2F0" height="30.2969" rx="2.5" ry="2.5" style="stroke:#181818;stroke-width:0.5;" width="157" x="864.5" y="50"/><text fill="#000000" font-family="sans-serif" font-size="14" lengthAdjust="spacing" textLength="143" x="871.5" y="69.9951">ReactionRepository</text><rect fill="#E2E2F0" height="30.2969" rx="2.5" ry="2.5" style="stroke:#181818;stroke-width:0.5;" width="157" x="864.5" y="2856.2578"/><text fill="#000000" font-family="sans-serif" font-size="14" lengthAdjust="spacing" textLength="143" x="871.5" y="2876.2529">ReactionRepository</text><rect fill="#E2E2F0" height="30.2969" rx="2.5" ry="2.5" style="stroke:#181818;stroke-width:0.5;" width="151" x="1031.5" y="50"/><text fill="#000000" font-family="sans-serif" font-size="14" lengthAdjust="spacing" textLength="137" x="1038.5" y="69.9951">HashtagRepository</text><rect fill="#E2E2F0" height="30.2969" rx="2.5" ry="2.5" style="stroke:#181818;stroke-width:0.5;" width="151" x="1031.5" y="2856.2578"/><text fill="#000000" font-family="sans-serif" font-size="14" lengthAdjust="spacing" textLength="137" x="1038.5" y="2876.2529">HashtagRepository</text><rect fill="#E2E2F0" height="30.2969" rx="2.5" ry="2.5" style="stroke:#181818;stroke-width:0.5;" width="184" x="1192.5" y="50"/><text fill="#000000" font-family="sans-serif" font-size="14" lengthAdjust="spacing" textLength="170" x="1199.5" y="69.9951">HashtagTextRepository</text><rect fill="#E2E2F0" height="30.2969" rx="2.5" ry="2.5" style="stroke:#181818;stroke-width:0.5;" width="184" x="1192.5" y="2856.2578"/><text fill="#000000" font-family="sans-serif" font-size="14" lengthAdjust="spacing" textLength="170" x="1199.5" y="2876.2529">HashtagTextRepository</text><rect fill="#E2E2F0" height="30.2969" rx="2.5" ry="2.5" style="stroke:#181818;stroke-width:0.5;" width="142" x="1386.5" y="50"/><text fill="#000000" font-family="sans-serif" font-size="14" lengthAdjust="spacing" textLength="128" x="1393.5" y="69.9951">AuthorRepository</text><rect fill="#E2E2F0" height="30.2969" rx="2.5" ry="2.5" style="stroke:#181818;stroke-width:0.5;" width="142" x="1386.5" y="2856.2578"/><text fill="#000000" font-family="sans-serif" font-size="14" lengthAdjust="spacing" textLength="128" x="1393.5" y="2876.2529">AuthorRepository</text><rect fill="#E2E2F0" height="46.5938" rx="2.5" ry="2.5" style="stroke:#181818;stroke-width:0.5;" width="135" x="1600" y="33.7031"/><text fill="#000000" font-family="sans-serif" font-size="14" lengthAdjust="spacing" textLength="121" x="1607" y="53.6982">MSSQL Database</text><text fill="#000000" font-family="sans-serif" font-size="14" lengthAdjust="spacing" textLength="89" x="1621" y="69.9951">(Chirp-prod)</text><rect fill="#E2E2F0" height="46.5938" rx="2.5" ry="2.5" style="stroke:#181818;stroke-width:0.5;" width="135" x="1600" y="2856.2578"/><text fill="#000000" font-family="sans-serif" font-size="14" lengthAdjust="spacing" textLength="121" x="1607" y="2876.2529">MSSQL Database</text><text fill="#000000" font-family="sans-serif" font-size="14" lengthAdjust="spacing" textLength="89" x="1621" y="2892.5498">(Chirp-prod)</text><rect fill="#E2E2F0" height="46.5938" rx="2.5" ry="2.5" style="stroke:#181818;stroke-width:0.5;" width="167" x="1745" y="33.7031"/><text fill="#000000" font-family="sans-serif" font-size="14" lengthAdjust="spacing" textLength="153" x="1752" y="53.6982">Azure AD B2C Tenant</text><text fill="#000000" font-family="sans-serif" font-size="14" lengthAdjust="spacing" textLength="65" x="1796" y="69.9951">(ogchirp)</text><rect fill="#E2E2F0" height="46.5938" rx="2.5" ry="2.5" style="stroke:#181818;stroke-width:0.5;" width="167" x="1745" y="2856.2578"/><text fill="#000000" font-family="sans-serif" font-size="14" lengthAdjust="spacing" textLength="153" x="1752" y="2876.2529">Azure AD B2C Tenant</text><text fill="#000000" font-family="sans-serif" font-size="14" lengthAdjust="spacing" textLength="65" x="1796" y="2892.5498">(ogchirp)</text><rect fill="#E2E2F0" height="30.2969" rx="2.5" ry="2.5" style="stroke:#181818;stroke-width:0.5;" width="110" x="1922" y="50"/><text fill="#000000" font-family="sans-serif" font-size="14" lengthAdjust="spacing" textLength="96" x="1929" y="69.9951">GithubClaims</text><rect fill="#E2E2F0" height="30.2969" rx="2.5" ry="2.5" style="stroke:#181818;stroke-width:0.5;" width="110" x="1922" y="2856.2578"/><text fill="#000000" font-family="sans-serif" font-size="14" lengthAdjust="spacing" textLength="96" x="1929" y="2876.2529">GithubClaims</text><rect fill="#E2E2F0" height="30.2969" rx="2.5" ry="2.5" style="stroke:#181818;stroke-width:0.5;" width="91" x="2088.5" y="50"/><text fill="#000000" font-family="sans-serif" font-size="14" lengthAdjust="spacing" textLength="77" x="2095.5" y="69.9951">GitHub API</text><rect fill="#E2E2F0" height="30.2969" rx="2.5" ry="2.5" style="stroke:#181818;stroke-width:0.5;" width="91" x="2088.5" y="2856.2578"/><text fill="#000000" font-family="sans-serif" font-size="14" lengthAdjust="spacing" textLength="77" x="2095.5" y="2876.2529">GitHub API</text><rect fill="#E2E2F0" height="46.5938" rx="2.5" ry="2.5" style="stroke:#181818;stroke-width:0.5;" width="155" x="2189.5" y="33.7031"/><text fill="#000000" font-family="sans-serif" font-size="14" lengthAdjust="spacing" textLength="80" x="2227" y="53.6982">AZURE B2C</text><text fill="#000000" font-family="sans-serif" font-size="14" lengthAdjust="spacing" textLength="141" x="2196.5" y="69.9951">(Graph Api ogchirp)</text><rect fill="#E2E2F0" height="46.5938" rx="2.5" ry="2.5" style="stroke:#181818;stroke-width:0.5;" width="155" x="2189.5" y="2856.2578"/><text fill="#000000" font-family="sans-serif" font-size="14" lengthAdjust="spacing" textLength="80" x="2227" y="2876.2529">AZURE B2C</text><text fill="#000000" font-family="sans-serif" font-size="14" lengthAdjust="spacing" textLength="141" x="2196.5" y="2892.5498">(Graph Api ogchirp)</text><polygon fill="#181818" points="294.5,108.4297,304.5,112.4297,294.5,116.4297,298.5,112.4297" style="stroke:#181818;stroke-width:1.0;"/><line style="stroke:#181818;stroke-width:1.0;" x1="38.5" x2="300.5" y1="112.4297" y2="112.4297"/><text fill="#000000" font-family="sans-serif" font-size="13" lengthAdjust="spacing" textLength="107" x="45.5" y="107.3638">Access Web App</text><path d="M10,127.4297 L76,127.4297 L76,134.5625 L66,144.5625 L10,144.5625 L10,127.4297 " fill="#EEEEEE" style="stroke:#000000;stroke-width:1.5;"/><rect fill="none" height="352.3984" style="stroke:#000000;stroke-width:1.5;" width="1912" x="10" y="127.4297"/><text fill="#000000" font-family="sans-serif" font-size="13" font-weight="bold" lengthAdjust="spacing" textLength="21" x="25" y="140.4966">alt</text><text fill="#000000" font-family="sans-serif" font-size="11" font-weight="bold" lengthAdjust="spacing" textLength="183" x="91" y="139.6401">[User is not authenticated]</text><polygon fill="#181818" points="294.5,161.6953,304.5,165.6953,294.5,169.6953,298.5,165.6953" style="stroke:#181818;stroke-width:1.0;"/><line style="stroke:#181818;stroke-width:1.0;" x1="38.5" x2="300.5" y1="165.6953" y2="165.6953"/><text fill="#000000" font-family="sans-serif" font-size="13" lengthAdjust="spacing" textLength="96" x="45.5" y="160.6294">Sign in to Chirp</text><polygon fill="#181818" points="1816.5,190.8281,1826.5,194.8281,1816.5,198.8281,1820.5,194.8281" style="stroke:#181818;stroke-width:1.0;"/><line style="stroke:#181818;stroke-width:1.0;" x1="306.5" x2="1822.5" y1="194.8281" y2="194.8281"/><text fill="#000000" font-family="sans-serif" font-size="13" lengthAdjust="spacing" textLength="95" x="313.5" y="189.7622">SignIn Request</text><polygon fill="#181818" points="49.5,219.9609,39.5,223.9609,49.5,227.9609,45.5,223.9609" style="stroke:#181818;stroke-width:1.0;"/><line style="stroke:#181818;stroke-width:1.0;" x1="43.5" x2="1827.5" y1="223.9609" y2="223.9609"/><text fill="#000000" font-family="sans-serif" font-size="13" lengthAdjust="spacing" textLength="74" x="55.5" y="218.895">SignIn Page</text><polygon fill="#181818" points="1816.5,249.0938,1826.5,253.0938,1816.5,257.0938,1820.5,253.0938" style="stroke:#181818;stroke-width:1.0;"/><line style="stroke:#181818;stroke-width:1.0;" x1="38.5" x2="1822.5" y1="253.0938" y2="253.0938"/><text fill="#000000" font-family="sans-serif" font-size="13" lengthAdjust="spacing" textLength="121" x="45.5" y="248.0278">Submit Credentials</text><polygon fill="#181818" points="317.5,278.2266,307.5,282.2266,317.5,286.2266,313.5,282.2266" style="stroke:#181818;stroke-width:1.0;"/><line style="stroke:#181818;stroke-width:1.0;" x1="311.5" x2="1827.5" y1="282.2266" y2="282.2266"/><text fill="#000000" font-family="sans-serif" font-size="13" lengthAdjust="spacing" textLength="287" x="323.5" y="277.1606">SignIn Response with token claims reference</text><polygon fill="#181818" points="49.5,307.3594,39.5,311.3594,49.5,315.3594,45.5,311.3594" style="stroke:#181818;stroke-width:1.0;"/><line style="stroke:#181818;stroke-width:1.0;" x1="43.5" x2="305.5" y1="311.3594" y2="311.3594"/><text fill="#000000" font-family="sans-serif" font-size="13" lengthAdjust="spacing" textLength="177" x="55.5" y="306.2935">Display Authenticated Page</text><line style="stroke:#000000;stroke-width:1.0;stroke-dasharray:2.0,2.0;" x1="10" x2="1922" y1="320.3594" y2="320.3594"/><text fill="#000000" font-family="sans-serif" font-size="11" font-weight="bold" lengthAdjust="spacing" textLength="155" x="15" y="330.5698">[User is authenticated]</text><polygon fill="#181818" points="49.5,351.2969,39.5,355.2969,49.5,359.2969,45.5,355.2969" style="stroke:#181818;stroke-width:1.0;"/><line style="stroke:#181818;stroke-width:1.0;" x1="43.5" x2="305.5" y1="355.2969" y2="355.2969"/><text fill="#000000" font-family="sans-serif" font-size="13" lengthAdjust="spacing" textLength="244" x="55.5" y="350.231">Display "Hello @User.Identity?.Name!"</text><polygon fill="#181818" points="294.5,380.4297,304.5,384.4297,294.5,388.4297,298.5,384.4297" style="stroke:#181818;stroke-width:1.0;"/><line style="stroke:#181818;stroke-width:1.0;" x1="38.5" x2="300.5" y1="384.4297" y2="384.4297"/><text fill="#000000" font-family="sans-serif" font-size="13" lengthAdjust="spacing" textLength="106" x="45.5" y="379.3638">Sign out of Chirp</text><polygon fill="#181818" points="1816.5,409.5625,1826.5,413.5625,1816.5,417.5625,1820.5,413.5625" style="stroke:#181818;stroke-width:1.0;"/><line style="stroke:#181818;stroke-width:1.0;" x1="306.5" x2="1822.5" y1="413.5625" y2="413.5625"/><text fill="#000000" font-family="sans-serif" font-size="13" lengthAdjust="spacing" textLength="107" x="313.5" y="408.4966">SignOut Request</text><polygon fill="#181818" points="317.5,438.6953,307.5,442.6953,317.5,446.6953,313.5,442.6953" style="stroke:#181818;stroke-width:1.0;"/><line style="stroke:#181818;stroke-width:1.0;" x1="311.5" x2="1827.5" y1="442.6953" y2="442.6953"/><text fill="#000000" font-family="sans-serif" font-size="13" lengthAdjust="spacing" textLength="153" x="323.5" y="437.6294">Redirect to SignOut URL</text><polygon fill="#181818" points="49.5,467.8281,39.5,471.8281,49.5,475.8281,45.5,471.8281" style="stroke:#181818;stroke-width:1.0;"/><line style="stroke:#181818;stroke-width:1.0;" x1="43.5" x2="305.5" y1="471.8281" y2="471.8281"/><text fill="#000000" font-family="sans-serif" font-size="13" lengthAdjust="spacing" textLength="193" x="55.5" y="466.7622">Redirect User to SignOut Page</text><polygon fill="#181818" points="294.5,503.9609,304.5,507.9609,294.5,511.9609,298.5,507.9609" style="stroke:#181818;stroke-width:1.0;"/><line style="stroke:#181818;stroke-width:1.0;" x1="38.5" x2="300.5" y1="507.9609" y2="507.9609"/><text fill="#000000" font-family="sans-serif" font-size="13" lengthAdjust="spacing" textLength="160" x="45.5" y="502.895">Access Hashtag Timeline</text><polygon fill="#181818" points="1095,533.0938,1105,537.0938,1095,541.0938,1099,537.0938" style="stroke:#181818;stroke-width:1.0;"/><line style="stroke:#181818;stroke-width:1.0;" x1="306.5" x2="1101" y1="537.0938" y2="537.0938"/><text fill="#000000" font-family="sans-serif" font-size="13" lengthAdjust="spacing" textLength="320" x="313.5" y="532.0278">GetCheepIDsByHashtagText(currentHashtagText)</text><polygon fill="#181818" points="1655.5,562.2266,1665.5,566.2266,1655.5,570.2266,1659.5,566.2266" style="stroke:#181818;stroke-width:1.0;"/><line style="stroke:#181818;stroke-width:1.0;" x1="1107" x2="1661.5" y1="566.2266" y2="566.2266"/><text fill="#000000" font-family="sans-serif" font-size="13" lengthAdjust="spacing" textLength="185" x="1114" y="561.1606">Query Cheep IDs by Hashtag</text><polygon fill="#181818" points="1118,591.3594,1108,595.3594,1118,599.3594,1114,595.3594" style="stroke:#181818;stroke-width:1.0;"/><line style="stroke:#181818;stroke-width:1.0;" x1="1112" x2="1666.5" y1="595.3594" y2="595.3594"/><text fill="#000000" font-family="sans-serif" font-size="13" lengthAdjust="spacing" textLength="112" x="1124" y="590.2935">Return Cheep IDs</text><polygon fill="#181818" points="317.5,620.4922,307.5,624.4922,317.5,628.4922,313.5,624.4922" style="stroke:#181818;stroke-width:1.0;"/><line style="stroke:#181818;stroke-width:1.0;" x1="311.5" x2="1106" y1="624.4922" y2="624.4922"/><text fill="#000000" font-family="sans-serif" font-size="13" lengthAdjust="spacing" textLength="65" x="323.5" y="619.4263">Cheep IDs</text><polygon fill="#181818" points="624.5,649.625,634.5,653.625,624.5,657.625,628.5,653.625" style="stroke:#181818;stroke-width:1.0;"/><line style="stroke:#181818;stroke-width:1.0;" x1="306.5" x2="630.5" y1="653.625" y2="653.625"/><text fill="#000000" font-family="sans-serif" font-size="13" lengthAdjust="spacing" textLength="306" x="313.5" y="648.5591">GetCheepsByCheepIdsAsync(cheepIds, pageNr)</text><polygon fill="#181818" points="1655.5,678.7578,1665.5,682.7578,1655.5,686.7578,1659.5,682.7578" style="stroke:#181818;stroke-width:1.0;"/><line style="stroke:#181818;stroke-width:1.0;" x1="636.5" x2="1661.5" y1="682.7578" y2="682.7578"/><text fill="#000000" font-family="sans-serif" font-size="13" lengthAdjust="spacing" textLength="135" x="643.5" y="677.6919">Query Cheeps by IDs</text><polygon fill="#181818" points="647.5,707.8906,637.5,711.8906,647.5,715.8906,643.5,711.8906" style="stroke:#181818;stroke-width:1.0;"/><line style="stroke:#181818;stroke-width:1.0;" x1="641.5" x2="1666.5" y1="711.8906" y2="711.8906"/><text fill="#000000" font-family="sans-serif" font-size="13" lengthAdjust="spacing" textLength="95" x="653.5" y="706.8247">Return Cheeps</text><polygon fill="#181818" points="317.5,737.0234,307.5,741.0234,317.5,745.0234,313.5,741.0234" style="stroke:#181818;stroke-width:1.0;"/><line style="stroke:#181818;stroke-width:1.0;" x1="311.5" x2="635.5" y1="741.0234" y2="741.0234"/><text fill="#000000" font-family="sans-serif" font-size="13" lengthAdjust="spacing" textLength="48" x="323.5" y="735.9575">Cheeps</text><polygon fill="#181818" points="49.5,766.1563,39.5,770.1563,49.5,774.1563,45.5,770.1563" style="stroke:#181818;stroke-width:1.0;"/><line style="stroke:#181818;stroke-width:1.0;" x1="43.5" x2="305.5" y1="770.1563" y2="770.1563"/><text fill="#000000" font-family="sans-serif" font-size="13" lengthAdjust="spacing" textLength="162" x="55.5" y="765.0903">Display Hashtag Timeline</text><polygon fill="#181818" points="294.5,795.2891,304.5,799.2891,294.5,803.2891,298.5,799.2891" style="stroke:#181818;stroke-width:1.0;"/><line style="stroke:#181818;stroke-width:1.0;" x1="38.5" x2="300.5" y1="799.2891" y2="799.2891"/><text fill="#000000" font-family="sans-serif" font-size="13" lengthAdjust="spacing" textLength="148" x="45.5" y="794.2231">Request PublicTimeline</text><polygon fill="#181818" points="624.5,824.4219,634.5,828.4219,624.5,832.4219,628.5,828.4219" style="stroke:#181818;stroke-width:1.0;"/><line style="stroke:#181818;stroke-width:1.0;" x1="306.5" x2="630.5" y1="828.4219" y2="828.4219"/><text fill="#000000" font-family="sans-serif" font-size="13" lengthAdjust="spacing" textLength="118" x="313.5" y="823.356">GetPublicCheeps()</text><polygon fill="#181818" points="1655.5,853.5547,1665.5,857.5547,1655.5,861.5547,1659.5,857.5547" style="stroke:#181818;stroke-width:1.0;"/><line style="stroke:#181818;stroke-width:1.0;" x1="636.5" x2="1661.5" y1="857.5547" y2="857.5547"/><text fill="#000000" font-family="sans-serif" font-size="13" lengthAdjust="spacing" textLength="132" x="643.5" y="852.4888">Query Public Cheeps</text><polygon fill="#181818" points="647.5,882.6875,637.5,886.6875,647.5,890.6875,643.5,886.6875" style="stroke:#181818;stroke-width:1.0;"/><line style="stroke:#181818;stroke-width:1.0;" x1="641.5" x2="1666.5" y1="886.6875" y2="886.6875"/><text fill="#000000" font-family="sans-serif" font-size="13" lengthAdjust="spacing" textLength="136" x="653.5" y="881.6216">Return Public Cheeps</text><polygon fill="#181818" points="317.5,911.8203,307.5,915.8203,317.5,919.8203,313.5,915.8203" style="stroke:#181818;stroke-width:1.0;"/><line style="stroke:#181818;stroke-width:1.0;" x1="311.5" x2="635.5" y1="915.8203" y2="915.8203"/><text fill="#000000" font-family="sans-serif" font-size="13" lengthAdjust="spacing" textLength="124" x="323.5" y="910.7544">Public Cheeps Data</text><polygon fill="#181818" points="49.5,940.9531,39.5,944.9531,49.5,948.9531,45.5,944.9531" style="stroke:#181818;stroke-width:1.0;"/><line style="stroke:#181818;stroke-width:1.0;" x1="43.5" x2="305.5" y1="944.9531" y2="944.9531"/><text fill="#000000" font-family="sans-serif" font-size="13" lengthAdjust="spacing" textLength="146" x="55.5" y="939.8872">Display Public Timeline</text><polygon fill="#181818" points="294.5,970.0859,304.5,974.0859,294.5,978.0859,298.5,974.0859" style="stroke:#181818;stroke-width:1.0;"/><line style="stroke:#181818;stroke-width:1.0;" x1="38.5" x2="300.5" y1="974.0859" y2="974.0859"/><text fill="#000000" font-family="sans-serif" font-size="13" lengthAdjust="spacing" textLength="140" x="45.5" y="969.02">Request UserTimeline</text><polygon fill="#181818" points="624.5,999.2188,634.5,1003.2188,624.5,1007.2188,628.5,1003.2188" style="stroke:#181818;stroke-width:1.0;"/><line style="stroke:#181818;stroke-width:1.0;" x1="306.5" x2="630.5" y1="1003.2188" y2="1003.2188"/><text fill="#000000" font-family="sans-serif" font-size="13" lengthAdjust="spacing" textLength="166" x="313.5" y="998.1528">GetUserCheeps(User OID)</text><polygon fill="#181818" points="1655.5,1028.3516,1665.5,1032.3516,1655.5,1036.3516,1659.5,1032.3516" style="stroke:#181818;stroke-width:1.0;"/><line style="stroke:#181818;stroke-width:1.0;" x1="636.5" x2="1661.5" y1="1032.3516" y2="1032.3516"/><text fill="#000000" font-family="sans-serif" font-size="13" lengthAdjust="spacing" textLength="124" x="643.5" y="1027.2856">Query User Cheeps</text><polygon fill="#181818" points="647.5,1057.4844,637.5,1061.4844,647.5,1065.4844,643.5,1061.4844" style="stroke:#181818;stroke-width:1.0;"/><line style="stroke:#181818;stroke-width:1.0;" x1="641.5" x2="1666.5" y1="1061.4844" y2="1061.4844"/><text fill="#000000" font-family="sans-serif" font-size="13" lengthAdjust="spacing" textLength="128" x="653.5" y="1056.4185">Return User Cheeps</text><polygon fill="#181818" points="317.5,1086.6172,307.5,1090.6172,317.5,1094.6172,313.5,1090.6172" style="stroke:#181818;stroke-width:1.0;"/><line style="stroke:#181818;stroke-width:1.0;" x1="311.5" x2="635.5" y1="1090.6172" y2="1090.6172"/><text fill="#000000" font-family="sans-serif" font-size="13" lengthAdjust="spacing" textLength="116" x="323.5" y="1085.5513">User Cheeps Data</text><polygon fill="#181818" points="49.5,1115.75,39.5,1119.75,49.5,1123.75,45.5,1119.75" style="stroke:#181818;stroke-width:1.0;"/><line style="stroke:#181818;stroke-width:1.0;" x1="43.5" x2="305.5" y1="1119.75" y2="1119.75"/><text fill="#000000" font-family="sans-serif" font-size="13" lengthAdjust="spacing" textLength="138" x="55.5" y="1114.6841">Display User Timeline</text><polygon fill="#181818" points="294.5,1144.8828,304.5,1148.8828,294.5,1152.8828,298.5,1148.8828" style="stroke:#181818;stroke-width:1.0;"/><line style="stroke:#181818;stroke-width:1.0;" x1="38.5" x2="300.5" y1="1148.8828" y2="1148.8828"/><text fill="#000000" font-family="sans-serif" font-size="13" lengthAdjust="spacing" textLength="146" x="45.5" y="1143.8169">Follow/Unfollow Author</text><polygon fill="#181818" points="773.5,1174.0156,783.5,1178.0156,773.5,1182.0156,777.5,1178.0156" style="stroke:#181818;stroke-width:1.0;"/><line style="stroke:#181818;stroke-width:1.0;" x1="306.5" x2="779.5" y1="1178.0156" y2="1178.0156"/><text fill="#000000" font-family="sans-serif" font-size="13" lengthAdjust="spacing" textLength="288" x="313.5" y="1172.9497">InsertNewFollowAsync / RemoveFollowAsync</text><polygon fill="#181818" points="1655.5,1203.1484,1665.5,1207.1484,1655.5,1211.1484,1659.5,1207.1484" style="stroke:#181818;stroke-width:1.0;"/><line style="stroke:#181818;stroke-width:1.0;" x1="785.5" x2="1661.5" y1="1207.1484" y2="1207.1484"/><text fill="#000000" font-family="sans-serif" font-size="13" lengthAdjust="spacing" textLength="138" x="792.5" y="1202.0825">Insert/Remove Follow</text><polygon fill="#181818" points="796.5,1232.2813,786.5,1236.2813,796.5,1240.2813,792.5,1236.2813" style="stroke:#181818;stroke-width:1.0;"/><line style="stroke:#181818;stroke-width:1.0;" x1="790.5" x2="1666.5" y1="1236.2813" y2="1236.2813"/><text fill="#000000" font-family="sans-serif" font-size="13" lengthAdjust="spacing" textLength="83" x="802.5" y="1231.2153">Confirmation</text><polygon fill="#181818" points="317.5,1261.4141,307.5,1265.4141,317.5,1269.4141,313.5,1265.4141" style="stroke:#181818;stroke-width:1.0;"/><line style="stroke:#181818;stroke-width:1.0;" x1="311.5" x2="784.5" y1="1265.4141" y2="1265.4141"/><text fill="#000000" font-family="sans-serif" font-size="13" lengthAdjust="spacing" textLength="165" x="323.5" y="1260.3481">Follow/Unfollow Complete</text><polygon fill="#181818" points="49.5,1290.5469,39.5,1294.5469,49.5,1298.5469,45.5,1294.5469" style="stroke:#181818;stroke-width:1.0;"/><line style="stroke:#181818;stroke-width:1.0;" x1="43.5" x2="305.5" y1="1294.5469" y2="1294.5469"/><text fill="#000000" font-family="sans-serif" font-size="13" lengthAdjust="spacing" textLength="135" x="55.5" y="1289.481">Update Follow Status</text><polygon fill="#181818" points="294.5,1319.6797,304.5,1323.6797,294.5,1327.6797,298.5,1323.6797" style="stroke:#181818;stroke-width:1.0;"/><line style="stroke:#181818;stroke-width:1.0;" x1="38.5" x2="300.5" y1="1323.6797" y2="1323.6797"/><text fill="#000000" font-family="sans-serif" font-size="13" lengthAdjust="spacing" textLength="99" x="45.5" y="1318.6138">React to Cheep</text><polygon fill="#181818" points="931,1348.8125,941,1352.8125,931,1356.8125,935,1352.8125" style="stroke:#181818;stroke-width:1.0;"/><line style="stroke:#181818;stroke-width:1.0;" x1="306.5" x2="937" y1="1352.8125" y2="1352.8125"/><text fill="#000000" font-family="sans-serif" font-size="13" lengthAdjust="spacing" textLength="200" x="313.5" y="1347.7466">CheckIfAuthorReactedToCheep</text><polygon fill="#181818" points="1655.5,1377.9453,1665.5,1381.9453,1655.5,1385.9453,1659.5,1381.9453" style="stroke:#181818;stroke-width:1.0;"/><line style="stroke:#181818;stroke-width:1.0;" x1="943" x2="1661.5" y1="1381.9453" y2="1381.9453"/><text fill="#000000" font-family="sans-serif" font-size="13" lengthAdjust="spacing" textLength="99" x="950" y="1376.8794">Query Reaction</text><polygon fill="#181818" points="954,1407.0781,944,1411.0781,954,1415.0781,950,1411.0781" style="stroke:#181818;stroke-width:1.0;"/><line style="stroke:#181818;stroke-width:1.0;" x1="948" x2="1666.5" y1="1411.0781" y2="1411.0781"/><text fill="#000000" font-family="sans-serif" font-size="13" lengthAdjust="spacing" textLength="148" x="960" y="1406.0122">Return Reaction Status</text><polygon fill="#181818" points="317.5,1436.2109,307.5,1440.2109,317.5,1444.2109,313.5,1440.2109" style="stroke:#181818;stroke-width:1.0;"/><line style="stroke:#181818;stroke-width:1.0;" x1="311.5" x2="942" y1="1440.2109" y2="1440.2109"/><text fill="#000000" font-family="sans-serif" font-size="13" lengthAdjust="spacing" textLength="101" x="323.5" y="1435.145">Reaction Status</text><path d="M256,1455.2109 L322,1455.2109 L322,1462.3438 L312,1472.3438 L256,1472.3438 L256,1455.2109 " fill="#EEEEEE" style="stroke:#000000;stroke-width:1.5;"/><rect fill="none" height="206.7344" style="stroke:#000000;stroke-width:1.5;" width="1489" x="256" y="1455.2109"/><text fill="#000000" font-family="sans-serif" font-size="13" font-weight="bold" lengthAdjust="spacing" textLength="21" x="271" y="1468.2778">alt</text><text fill="#000000" font-family="sans-serif" font-size="11" font-weight="bold" lengthAdjust="spacing" textLength="151" x="337" y="1467.4214">[User has not reacted]</text><polygon fill="#181818" points="931,1489.4766,941,1493.4766,931,1497.4766,935,1493.4766" style="stroke:#181818;stroke-width:1.0;"/><line style="stroke:#181818;stroke-width:1.0;" x1="306.5" x2="937" y1="1493.4766" y2="1493.4766"/><text fill="#000000" font-family="sans-serif" font-size="13" lengthAdjust="spacing" textLength="159" x="313.5" y="1488.4106">InsertNewReactionAsync</text><polygon fill="#181818" points="1655.5,1518.6094,1665.5,1522.6094,1655.5,1526.6094,1659.5,1522.6094" style="stroke:#181818;stroke-width:1.0;"/><line style="stroke:#181818;stroke-width:1.0;" x1="943" x2="1661.5" y1="1522.6094" y2="1522.6094"/><text fill="#000000" font-family="sans-serif" font-size="13" lengthAdjust="spacing" textLength="96" x="950" y="1517.5435">Insert Reaction</text><polygon fill="#181818" points="954,1547.7422,944,1551.7422,954,1555.7422,950,1551.7422" style="stroke:#181818;stroke-width:1.0;"/><line style="stroke:#181818;stroke-width:1.0;" x1="948" x2="1666.5" y1="1551.7422" y2="1551.7422"/><text fill="#000000" font-family="sans-serif" font-size="13" lengthAdjust="spacing" textLength="83" x="960" y="1546.6763">Confirmation</text><line style="stroke:#000000;stroke-width:1.0;stroke-dasharray:2.0,2.0;" x1="256" x2="1745" y1="1560.7422" y2="1560.7422"/><text fill="#000000" font-family="sans-serif" font-size="11" font-weight="bold" lengthAdjust="spacing" textLength="123" x="261" y="1570.9526">[User has reacted]</text><polygon fill="#181818" points="931,1591.6797,941,1595.6797,931,1599.6797,935,1595.6797" style="stroke:#181818;stroke-width:1.0;"/><line style="stroke:#181818;stroke-width:1.0;" x1="306.5" x2="937" y1="1595.6797" y2="1595.6797"/><text fill="#000000" font-family="sans-serif" font-size="13" lengthAdjust="spacing" textLength="149" x="313.5" y="1590.6138">RemoveReactionAsync</text><polygon fill="#181818" points="1655.5,1620.8125,1665.5,1624.8125,1655.5,1628.8125,1659.5,1624.8125" style="stroke:#181818;stroke-width:1.0;"/><line style="stroke:#181818;stroke-width:1.0;" x1="943" x2="1661.5" y1="1624.8125" y2="1624.8125"/><text fill="#000000" font-family="sans-serif" font-size="13" lengthAdjust="spacing" textLength="114" x="950" y="1619.7466">Remove Reaction</text><polygon fill="#181818" points="954,1649.9453,944,1653.9453,954,1657.9453,950,1653.9453" style="stroke:#181818;stroke-width:1.0;"/><line style="stroke:#181818;stroke-width:1.0;" x1="948" x2="1666.5" y1="1653.9453" y2="1653.9453"/><text fill="#000000" font-family="sans-serif" font-size="13" lengthAdjust="spacing" textLength="83" x="960" y="1648.8794">Confirmation</text><polygon fill="#181818" points="317.5,1686.0781,307.5,1690.0781,317.5,1694.0781,313.5,1690.0781" style="stroke:#181818;stroke-width:1.0;"/><line style="stroke:#181818;stroke-width:1.0;" x1="311.5" x2="942" y1="1690.0781" y2="1690.0781"/><text fill="#000000" font-family="sans-serif" font-size="13" lengthAdjust="spacing" textLength="172" x="323.5" y="1685.0122">Reaction Update Complete</text><polygon fill="#181818" points="49.5,1715.2109,39.5,1719.2109,49.5,1723.2109,45.5,1719.2109" style="stroke:#181818;stroke-width:1.0;"/><line style="stroke:#181818;stroke-width:1.0;" x1="43.5" x2="305.5" y1="1719.2109" y2="1719.2109"/><text fill="#000000" font-family="sans-serif" font-size="13" lengthAdjust="spacing" textLength="151" x="55.5" y="1714.145">Update Reaction Status</text><polygon fill="#181818" points="294.5,1744.3438,304.5,1748.3438,294.5,1752.3438,298.5,1748.3438" style="stroke:#181818;stroke-width:1.0;"/><line style="stroke:#181818;stroke-width:1.0;" x1="38.5" x2="300.5" y1="1748.3438" y2="1748.3438"/><text fill="#000000" font-family="sans-serif" font-size="13" lengthAdjust="spacing" textLength="115" x="45.5" y="1743.2778">Insert New Author</text><polygon fill="#181818" points="1445.5,1773.4766,1455.5,1777.4766,1445.5,1781.4766,1449.5,1777.4766" style="stroke:#181818;stroke-width:1.0;"/><line style="stroke:#181818;stroke-width:1.0;" x1="306.5" x2="1451.5" y1="1777.4766" y2="1777.4766"/><text fill="#000000" font-family="sans-serif" font-size="13" lengthAdjust="spacing" textLength="108" x="313.5" y="1772.4106">Create New User</text><polygon fill="#181818" points="1965,1802.6094,1975,1806.6094,1965,1810.6094,1969,1806.6094" style="stroke:#181818;stroke-width:1.0;"/><line style="stroke:#181818;stroke-width:1.0;" x1="1457.5" x2="1971" y1="1806.6094" y2="1806.6094"/><text fill="#000000" font-family="sans-serif" font-size="13" lengthAdjust="spacing" textLength="223" x="1464.5" y="1801.5435">GetGitHubClaimsAsync(username)</text><polygon fill="#181818" points="2122,1831.7422,2132,1835.7422,2122,1839.7422,2126,1835.7422" style="stroke:#181818;stroke-width:1.0;"/><line style="stroke:#181818;stroke-width:1.0;" x1="1977" x2="2128" y1="1835.7422" y2="1835.7422"/><text fill="#000000" font-family="sans-serif" font-size="13" lengthAdjust="spacing" textLength="133" x="1984" y="1830.6763">Request User Claims</text><polygon fill="#181818" points="1988,1860.875,1978,1864.875,1988,1868.875,1984,1864.875" style="stroke:#181818;stroke-width:1.0;"/><line style="stroke:#181818;stroke-width:1.0;" x1="1982" x2="2133" y1="1864.875" y2="1864.875"/><text fill="#000000" font-family="sans-serif" font-size="13" lengthAdjust="spacing" textLength="123" x="1994" y="1859.8091">Return User Claims</text><polygon fill="#181818" points="1468.5,1890.0078,1458.5,1894.0078,1468.5,1898.0078,1464.5,1894.0078" style="stroke:#181818;stroke-width:1.0;"/><line style="stroke:#181818;stroke-width:1.0;" x1="1462.5" x2="1976" y1="1894.0078" y2="1894.0078"/><text fill="#000000" font-family="sans-serif" font-size="13" lengthAdjust="spacing" textLength="139" x="1474.5" y="1888.9419">Return Claims JObject</text><polygon fill="#181818" points="1655.5,1919.1406,1665.5,1923.1406,1655.5,1927.1406,1659.5,1923.1406" style="stroke:#181818;stroke-width:1.0;"/><line style="stroke:#181818;stroke-width:1.0;" x1="1457.5" x2="1661.5" y1="1923.1406" y2="1923.1406"/><text fill="#000000" font-family="sans-serif" font-size="13" lengthAdjust="spacing" textLength="126" x="1464.5" y="1918.0747">Insert Author Query</text><polygon fill="#181818" points="1468.5,1948.2734,1458.5,1952.2734,1468.5,1956.2734,1464.5,1952.2734" style="stroke:#181818;stroke-width:1.0;"/><line style="stroke:#181818;stroke-width:1.0;" x1="1462.5" x2="1666.5" y1="1952.2734" y2="1952.2734"/><text fill="#000000" font-family="sans-serif" font-size="13" lengthAdjust="spacing" textLength="186" x="1474.5" y="1947.2075">Author Inserted Confirmation</text><polygon fill="#181818" points="294.5,1977.4063,304.5,1981.4063,294.5,1985.4063,298.5,1981.4063" style="stroke:#181818;stroke-width:1.0;"/><line style="stroke:#181818;stroke-width:1.0;" x1="38.5" x2="300.5" y1="1981.4063" y2="1981.4063"/><text fill="#000000" font-family="sans-serif" font-size="13" lengthAdjust="spacing" textLength="105" x="45.5" y="1976.3403">Post New Cheep</text><polygon fill="#181818" points="1445.5,2006.5391,1455.5,2010.5391,1445.5,2014.5391,1449.5,2010.5391" style="stroke:#181818;stroke-width:1.0;"/><line style="stroke:#181818;stroke-width:1.0;" x1="306.5" x2="1451.5" y1="2010.5391" y2="2010.5391"/><text fill="#000000" font-family="sans-serif" font-size="13" lengthAdjust="spacing" textLength="112" x="313.5" y="2005.4731">SendCheepAsync</text><polygon fill="#181818" points="1655.5,2035.6719,1665.5,2039.6719,1655.5,2043.6719,1659.5,2039.6719" style="stroke:#181818;stroke-width:1.0;"/><line style="stroke:#181818;stroke-width:1.0;" x1="1457.5" x2="1661.5" y1="2039.6719" y2="2039.6719"/><text fill="#000000" font-family="sans-serif" font-size="13" lengthAdjust="spacing" textLength="113" x="1464.5" y="2034.606">Insert New Cheep</text><polygon fill="#181818" points="1468.5,2064.8047,1458.5,2068.8047,1468.5,2072.8047,1464.5,2068.8047" style="stroke:#181818;stroke-width:1.0;"/><line style="stroke:#181818;stroke-width:1.0;" x1="1462.5" x2="1666.5" y1="2068.8047" y2="2068.8047"/><text fill="#000000" font-family="sans-serif" font-size="13" lengthAdjust="spacing" textLength="101" x="1474.5" y="2063.7388">Return CheepID</text><polygon fill="#181818" points="317.5,2093.9375,307.5,2097.9375,317.5,2101.9375,313.5,2097.9375" style="stroke:#181818;stroke-width:1.0;"/><line style="stroke:#181818;stroke-width:1.0;" x1="311.5" x2="1456.5" y1="2097.9375" y2="2097.9375"/><text fill="#000000" font-family="sans-serif" font-size="13" lengthAdjust="spacing" textLength="89" x="323.5" y="2092.8716">Cheep Posted</text><polygon fill="#181818" points="1095,2123.0703,1105,2127.0703,1095,2131.0703,1099,2127.0703" style="stroke:#181818;stroke-width:1.0;"/><line style="stroke:#181818;stroke-width:1.0;" x1="306.5" x2="1101" y1="2127.0703" y2="2127.0703"/><text fill="#000000" font-family="sans-serif" font-size="13" lengthAdjust="spacing" textLength="240" x="313.5" y="2122.0044">InsertNewHashtagCheepPairingAsync</text><polygon fill="#181818" points="1655.5,2152.2031,1665.5,2156.2031,1655.5,2160.2031,1659.5,2156.2031" style="stroke:#181818;stroke-width:1.0;"/><line style="stroke:#181818;stroke-width:1.0;" x1="1107" x2="1661.5" y1="2156.2031" y2="2156.2031"/><text fill="#000000" font-family="sans-serif" font-size="13" lengthAdjust="spacing" textLength="165" x="1114" y="2151.1372">Store Hashtag-Cheep Pair</text><polygon fill="#181818" points="1118,2181.3359,1108,2185.3359,1118,2189.3359,1114,2185.3359" style="stroke:#181818;stroke-width:1.0;"/><line style="stroke:#181818;stroke-width:1.0;" x1="1112" x2="1666.5" y1="2185.3359" y2="2185.3359"/><text fill="#000000" font-family="sans-serif" font-size="13" lengthAdjust="spacing" textLength="83" x="1124" y="2180.27">Confirmation</text><polygon fill="#181818" points="317.5,2210.4688,307.5,2214.4688,317.5,2218.4688,313.5,2214.4688" style="stroke:#181818;stroke-width:1.0;"/><line style="stroke:#181818;stroke-width:1.0;" x1="311.5" x2="1106" y1="2214.4688" y2="2214.4688"/><text fill="#000000" font-family="sans-serif" font-size="13" lengthAdjust="spacing" textLength="106" x="323.5" y="2209.4028">Hashtags Stored</text><polygon fill="#181818" points="1272.5,2239.6016,1282.5,2243.6016,1272.5,2247.6016,1276.5,2243.6016" style="stroke:#181818;stroke-width:1.0;"/><line style="stroke:#181818;stroke-width:1.0;" x1="306.5" x2="1278.5" y1="2243.6016" y2="2243.6016"/><text fill="#000000" font-family="sans-serif" font-size="13" lengthAdjust="spacing" textLength="78" x="313.5" y="2238.5356">AddHashtag</text><polygon fill="#181818" points="1655.5,2268.7344,1665.5,2272.7344,1655.5,2276.7344,1659.5,2272.7344" style="stroke:#181818;stroke-width:1.0;"/><line style="stroke:#181818;stroke-width:1.0;" x1="1284.5" x2="1661.5" y1="2272.7344" y2="2272.7344"/><text fill="#000000" font-family="sans-serif" font-size="13" lengthAdjust="spacing" textLength="124" x="1291.5" y="2267.6685">Store Hashtag Text</text><polygon fill="#181818" points="1295.5,2297.8672,1285.5,2301.8672,1295.5,2305.8672,1291.5,2301.8672" style="stroke:#181818;stroke-width:1.0;"/><line style="stroke:#181818;stroke-width:1.0;" x1="1289.5" x2="1666.5" y1="2301.8672" y2="2301.8672"/><text fill="#000000" font-family="sans-serif" font-size="13" lengthAdjust="spacing" textLength="83" x="1301.5" y="2296.8013">Confirmation</text><polygon fill="#181818" points="317.5,2327,307.5,2331,317.5,2335,313.5,2331" style="stroke:#181818;stroke-width:1.0;"/><line style="stroke:#181818;stroke-width:1.0;" x1="311.5" x2="1283.5" y1="2331" y2="2331"/><text fill="#000000" font-family="sans-serif" font-size="13" lengthAdjust="spacing" textLength="139" x="323.5" y="2325.9341">Hashtags Text Stored</text><polygon fill="#181818" points="49.5,2356.1328,39.5,2360.1328,49.5,2364.1328,45.5,2360.1328" style="stroke:#181818;stroke-width:1.0;"/><line style="stroke:#181818;stroke-width:1.0;" x1="43.5" x2="305.5" y1="2360.1328" y2="2360.1328"/><text fill="#000000" font-family="sans-serif" font-size="13" lengthAdjust="spacing" textLength="179" x="55.5" y="2355.0669">Display Cheep Confirmation</text><polygon fill="#181818" points="294.5,2385.2656,304.5,2389.2656,294.5,2393.2656,298.5,2389.2656" style="stroke:#181818;stroke-width:1.0;"/><line style="stroke:#181818;stroke-width:1.0;" x1="38.5" x2="300.5" y1="2389.2656" y2="2389.2656"/><text fill="#000000" font-family="sans-serif" font-size="13" lengthAdjust="spacing" textLength="126" x="45.5" y="2384.1997">OnPostForgetUser()</text><line style="stroke:#181818;stroke-width:1.0;" x1="306.5" x2="348.5" y1="2418.3984" y2="2418.3984"/><line style="stroke:#181818;stroke-width:1.0;" x1="348.5" x2="348.5" y1="2418.3984" y2="2431.3984"/><line style="stroke:#181818;stroke-width:1.0;" x1="307.5" x2="348.5" y1="2431.3984" y2="2431.3984"/><polygon fill="#181818" points="317.5,2427.3984,307.5,2431.3984,317.5,2435.3984,313.5,2431.3984" style="stroke:#181818;stroke-width:1.0;"/><text fill="#000000" font-family="sans-serif" font-size="13" lengthAdjust="spacing" textLength="103" x="313.5" y="2413.3325">Get User Claims</text><polygon fill="#181818" points="1445.5,2456.5313,1455.5,2460.5313,1445.5,2464.5313,1449.5,2460.5313" style="stroke:#181818;stroke-width:1.0;"/><line style="stroke:#181818;stroke-width:1.0;" x1="306.5" x2="1451.5" y1="2460.5313" y2="2460.5313"/><text fill="#000000" font-family="sans-serif" font-size="13" lengthAdjust="spacing" textLength="171" x="313.5" y="2455.4653">DeleteAuthorAsync(name)</text><polygon fill="#181818" points="1655.5,2485.6641,1665.5,2489.6641,1655.5,2493.6641,1659.5,2489.6641" style="stroke:#181818;stroke-width:1.0;"/><line style="stroke:#181818;stroke-width:1.0;" x1="1457.5" x2="1661.5" y1="2489.6641" y2="2489.6641"/><text fill="#000000" font-family="sans-serif" font-size="13" lengthAdjust="spacing" textLength="132" x="1464.5" y="2484.5981">Delete Author Query</text><polygon fill="#181818" points="1468.5,2514.7969,1458.5,2518.7969,1468.5,2522.7969,1464.5,2518.7969" style="stroke:#181818;stroke-width:1.0;"/><line style="stroke:#181818;stroke-width:1.0;" x1="1462.5" x2="1666.5" y1="2518.7969" y2="2518.7969"/><text fill="#000000" font-family="sans-serif" font-size="13" lengthAdjust="spacing" textLength="184" x="1474.5" y="2513.731">Author Deleted Confirmation</text><polygon fill="#181818" points="2255,2543.9297,2265,2547.9297,2255,2551.9297,2259,2547.9297" style="stroke:#181818;stroke-width:1.0;"/><line style="stroke:#181818;stroke-width:1.0;" x1="306.5" x2="2261" y1="2547.9297" y2="2547.9297"/><text fill="#000000" font-family="sans-serif" font-size="13" lengthAdjust="spacing" textLength="164" x="313.5" y="2542.8638">DeleteUserById(User OID)</text><polygon fill="#181818" points="1839.5,2573.0625,1829.5,2577.0625,1839.5,2581.0625,1835.5,2577.0625" style="stroke:#181818;stroke-width:1.0;"/><line style="stroke:#181818;stroke-width:1.0;" x1="1833.5" x2="2266" y1="2577.0625" y2="2577.0625"/><text fill="#000000" font-family="sans-serif" font-size="13" lengthAdjust="spacing" textLength="132" x="1845.5" y="2571.9966">Delete User Request</text><polygon fill="#181818" points="2255,2602.1953,2265,2606.1953,2255,2610.1953,2259,2606.1953" style="stroke:#181818;stroke-width:1.0;"/><line style="stroke:#181818;stroke-width:1.0;" x1="1828.5" x2="2261" y1="2606.1953" y2="2606.1953"/><text fill="#000000" font-family="sans-serif" font-size="13" lengthAdjust="spacing" textLength="170" x="1835.5" y="2601.1294">User Deleted Confirmation</text><polygon fill="#181818" points="317.5,2631.3281,307.5,2635.3281,317.5,2639.3281,313.5,2635.3281" style="stroke:#181818;stroke-width:1.0;"/><line style="stroke:#181818;stroke-width:1.0;" x1="311.5" x2="2266" y1="2635.3281" y2="2635.3281"/><text fill="#000000" font-family="sans-serif" font-size="13" lengthAdjust="spacing" textLength="152" x="323.5" y="2630.2622">User Deletion Complete</text><polygon fill="#181818" points="1816.5,2660.4609,1826.5,2664.4609,1816.5,2668.4609,1820.5,2664.4609" style="stroke:#181818;stroke-width:1.0;"/><line style="stroke:#181818;stroke-width:1.0;" x1="306.5" x2="1822.5" y1="2664.4609" y2="2664.4609"/><text fill="#000000" font-family="sans-serif" font-size="13" lengthAdjust="spacing" textLength="107" x="313.5" y="2659.395">SignOut Request</text><polygon fill="#181818" points="317.5,2689.5938,307.5,2693.5938,317.5,2697.5938,313.5,2693.5938" style="stroke:#181818;stroke-width:1.0;"/><line style="stroke:#181818;stroke-width:1.0;" x1="311.5" x2="1827.5" y1="2693.5938" y2="2693.5938"/><text fill="#000000" font-family="sans-serif" font-size="13" lengthAdjust="spacing" textLength="153" x="323.5" y="2688.5278">Redirect to SignOut URL</text><polygon fill="#181818" points="49.5,2718.7266,39.5,2722.7266,49.5,2726.7266,45.5,2722.7266" style="stroke:#181818;stroke-width:1.0;"/><line style="stroke:#181818;stroke-width:1.0;" x1="43.5" x2="305.5" y1="2722.7266" y2="2722.7266"/><text fill="#000000" font-family="sans-serif" font-size="13" lengthAdjust="spacing" textLength="193" x="55.5" y="2717.6606">Redirect User to SignOut Page</text><polygon fill="#181818" points="294.5,2747.8594,304.5,2751.8594,294.5,2755.8594,298.5,2751.8594" style="stroke:#181818;stroke-width:1.0;"/><line style="stroke:#181818;stroke-width:1.0;" x1="38.5" x2="300.5" y1="2751.8594" y2="2751.8594"/><text fill="#000000" font-family="sans-serif" font-size="13" lengthAdjust="spacing" textLength="99" x="45.5" y="2746.7935">Delete a Cheep</text><polygon fill="#181818" points="624.5,2776.9922,634.5,2780.9922,624.5,2784.9922,628.5,2780.9922" style="stroke:#181818;stroke-width:1.0;"/><line style="stroke:#181818;stroke-width:1.0;" x1="306.5" x2="630.5" y1="2780.9922" y2="2780.9922"/><text fill="#000000" font-family="sans-serif" font-size="13" lengthAdjust="spacing" textLength="221" x="313.5" y="2775.9263">Post Delete Cheep(string CheepId)</text><polygon fill="#181818" points="1655.5,2806.125,1665.5,2810.125,1655.5,2814.125,1659.5,2810.125" style="stroke:#181818;stroke-width:1.0;"/><line style="stroke:#181818;stroke-width:1.0;" x1="636.5" x2="1661.5" y1="2810.125" y2="2810.125"/><text fill="#000000" font-family="sans-serif" font-size="13" lengthAdjust="spacing" textLength="224" x="643.5" y="2805.0591">DeleteCheepAsync(string CheepId)</text><polygon fill="#181818" points="647.5,2835.2578,637.5,2839.2578,647.5,2843.2578,643.5,2839.2578" style="stroke:#181818;stroke-width:1.0;"/><line style="stroke:#181818;stroke-width:1.0;" x1="641.5" x2="1666.5" y1="2839.2578" y2="2839.2578"/><text fill="#000000" font-family="sans-serif" font-size="13" lengthAdjust="spacing" textLength="182" x="653.5" y="2834.1919">Cheep Deleted Confirmation</text><!--SRC=[bLTDR-Cs4BthLx0vsK2p0NhieQrZTnCNsyHhnoXGz499OvjTcL99QbFtrtVu8Ocag7MIIs3opUERuSnmH0jL2xAN80YLfCN_MKE5OWLhA5VavW_8oQ9fRlJkA-IqQSBzvGcWsK9JIuP45uChkhKG-h6kglermXxwnH2y1LeeLlC8BhpbqE2HofEYnmX_6bQJy1VuLwLDkftGRD6gKoqY2zelXk3VTxlFdyYAAffJ2N_nsVB4H7FRYBgS4sDPvX7zVwq0ibYH-n-Mv0KuBg9PVIoquToOk1-XtGDJfpPVLfITfK4TlOKHzB75EzsiFU2YOP6GF_VRNxKAFFv1qEQ4IS1884JdoWx4LrP0bcNw5xdzoUK8-P4iYWAa92v_CbefcsLC4buh4pFWU21LK6O4_qOCEtRaX76YQc82Pr1k5t5EZ0EkETd2For8PM3T9k8CRm_Qq2C4ntaqRNvcYYm5b5ePhMHC5KWp9ygcvXB8AqOHTNu1JWeJSqpK0mZW1KIgdPeLaqr5BsJXXy6AWme9kr2DmpH9TVC8M4ha5stwOMrSK9UVFppHCtntyuq8rwqYzU4D8Nv6e1VZL5osK381XT9trfdijv-obEuUQtpr36mKU3cTLAvuoGixGyKuP0EvL_28Vm1b6jHw9UylNidFYbRWxIXlQPxvfiXKvaZmkGLn8OQ380d9BztX6UwFpjk2QWKVy35dxyY0yBJtVTDJZhgj1wLSo0ilPeNxzJrfC4vFOfuDPWdLHh8-nyhrZ_35of0br2cpoQGRtKIg5RYa8PishrYHkBJ8SOkpHy-c_REmJkAaVo4ixMQ0CHrxscM77JoUz5SdzdLlDShvQYhXURsQzjaWhddiWzB-UeWhtXhaDtorZ_hTdjk7dDW7qkCR7dX4hx5P2lK4hzRCP3IvGztd-YjuQvbdrGN0sjvPh3lNnI0uOrdp0nDdgiU4Y6TIzR8-DnKe6CTXtvJOUfq1sIcgMfcyScgxdWcgH-CFBBQUYY_hGpT6u1wKBxKr2g3XjNVJaFCt8dNNte4wbJ5VADO3zcypTYlpE0ihB7eDebFxk-pexCrfcwGd5Z-uee59Tu8B75x3KpV-NHDcC-IDgbmwlLSLlaxNm-jovsfonVSnJYyNEmpskC26wLEhH5N8g84wQ9ctYL1_AhJDnqw3TiM-B_fiZZF3F0lGlRMU0yCMHzoOEUoFZmewamyVw0C_khV9xlxsdF-DaqBaZPzLDYgsMboH17nktw9nqWfkSnplJIrjjEDo3aXtc0O6O7DiMjt0b93cFyFhLSGI3GnQ5wR_rBZJbwHxbetHXZB1-D5gJCquE_oGWUubltK7eL5omWa2DpNTE2vfgHDwkuyhVJDbsKrKyMPI8D7ReJIFBINFvnjBrBjZdT4hQ8Do9McUkRwUZxKusaSTHvU1i4TXqGLbC95RAz0jmwQjBKnRb8aaiz2tbe15HnKGEkw-wdfgBVV-iYwz-SI71HyAJen1TXyBqSVOG6zGIK4HVpYu60lTBnETTVgJvJtVA-_yM1ddWWi37JMGVXvpJSO13MmcbQvKrmfARmeqLzsn3YrdP53cqKHe4pSLuly1]--></g></svg>